<svg xmlns="http://www.w3.org/2000/svg" width="85.97" height="110.22"><defs><style>.a{fill:#fdb906}.b{fill:#e40138}.c{fill:#1da4c1}</style></defs><path d="M2.08 94.14c1.07 0 1.57.54 1.57 1.36a2 2 0 0 1-2.09 2C.5 97.53 0 97 0 96.15a2 2 0 0 1 2.08-2.01zM8.88 92.6c0 1.45.54 2.42 2 2.42a4.87 4.87 0 0 0 2.72-1l.81 2.15a7.56 7.56 0 0 1-4.32 1.31c-2.9 0-4.51-1.6-4.51-4.53 0-5.5 3.37-7.54 6.75-7.54a6.4 6.4 0 0 1 3.46.86l-.56 3.29-2.4.16.2-1.14c.07-.36.05-.52-.25-.63a2.89 2.89 0 0 0-.77-.09c-1.91.05-3.13 1.82-3.13 4.74zM27.06 89.65c0 3.69-1.52 7.88-6.5 7.88-2.74 0-4.28-1.45-4.28-4.19 0-3.37 1.31-7.88 6.52-7.88 1.61 0 4.26.62 4.26 4.19zm-3.42 2a13.23 13.23 0 0 0 .16-1.92c0-1.27-.41-2-1.47-2-1.43 0-2.2 1.25-2.59 3.35a10.31 10.31 0 0 0-.2 2.13c0 1.18.34 2 1.45 2 1.43.04 2.22-1.1 2.65-3.52zM32.83 90.88l-1.13 6.36h-3.1l1.56-8.83c.09-.52 0-.64-.41-.7h-.68l.34-1.9h4.08l-.25 1.49a3.89 3.89 0 0 1 3.47-1.79c2.26 0 3.42 1.18 2.94 3.92l-1 5.48c-.07.45 0 .54.45.54a3.64 3.64 0 0 0 .43 0 1.67 1.67 0 0 0 .3 0l-.34 1.88a8.48 8.48 0 0 1-2 .27c-1.81 0-2.29-.9-2-2.51l.89-5c.2-1.11.09-2-1.11-2-1.33-.09-2.1.91-2.44 2.79zM45.08 92.6c0 1.45.54 2.42 2 2.42a4.87 4.87 0 0 0 2.72-1l.81 2.15a7.56 7.56 0 0 1-4.32 1.31c-2.9 0-4.51-1.6-4.51-4.53 0-5.5 3.38-7.54 6.75-7.54a6.46 6.46 0 0 1 3.47.86l-.57 3.29-2.4.16.2-1.14c.07-.36.05-.52-.25-.63a2.89 2.89 0 0 0-.77-.09c-1.91.05-3.13 1.82-3.13 4.74zM62.24 94.93c-.07.36.07.47.36.47h.52a2.68 2.68 0 0 0 .39 0l-.34 1.9a6.82 6.82 0 0 1-1.88.27c-1.36 0-1.9-.77-1.83-1.65h-.05a3.73 3.73 0 0 1-3.26 1.65c-2.72 0-3.67-1.79-3.67-4.07 0-4.58 2.27-8 7.13-8a11.16 11.16 0 0 1 4.12.84zm-2.78-2l.86-4.93a2.83 2.83 0 0 0-1.25-.25c-2.56 0-3.31 3.37-3.31 5.53 0 1.08.25 2 1.43 2s1.97-.74 2.27-2.39zM65.93 86c1.63-.3 2.45-1.32 3.22-2.86h1.74l-.48 2.61h2.83L72.75 88H70l-1 5.55c-.25 1.27.07 1.61 1 1.61a4.1 4.1 0 0 0 1.67-.43l.33 2.1a6.18 6.18 0 0 1-3.08.7c-3.55 0-3.33-2.13-3-3.85l1-5.73h-1.6zM73.4 94.27c0-5.25 1.88-9.28 5.32-13.63l1.79.91a21.13 21.13 0 0 0-4.62 13 20.11 20.11 0 0 0 .82 6l-2 .81a21.28 21.28 0 0 1-1.31-7.09zM86 87.64c0 5.27-1.88 9.3-5.35 13.65l-1.79-.9a21.09 21.09 0 0 0 4.62-13 20.68 20.68 0 0 0-.81-6l2-.79A21.51 21.51 0 0 1 86 87.64z"/><g><path d="M32.35 104.51l-1.35.08.34-2a6.12 6.12 0 0 1 2.53-.53c1.52 0 2.27.74 2.27 1.94a3.64 3.64 0 0 1-1.55 2.66l-2.33 2.17h3.35l-.21 1.19H30l.18-1 3-2.92c.81-.78 1.15-1.2 1.15-1.87s-.33-.77-1-.77a2.37 2.37 0 0 0-.66.08c-.19 0-.2.15-.23.34zM42.76 104.92c0 2.7-1 5.27-3.64 5.27-1.57 0-2.44-.89-2.44-2.78 0-3.25 1.41-5.3 3.67-5.3 1.5 0 2.41.89 2.41 2.81zm-2 2.5a9.32 9.32 0 0 0 .34-2.55c0-1.06-.38-1.38-.93-1.38-.92 0-1.43 1-1.68 2.49a9.61 9.61 0 0 0-.12 1.51c0 1 .4 1.35.95 1.35.68 0 1.14-.54 1.42-1.42zM45.89 103.89a4.57 4.57 0 0 1-1.92.87l-.3-1.21a6.41 6.41 0 0 0 2.72-1.28h1.48L46.69 109l1.36.07-.19 1h-4.52l.18-1 1.15-.09c.23 0 .33 0 .38-.37zM52.74 104.89a1.35 1.35 0 0 0 .53-1c0-.45-.31-.71-.88-.71s-1.1.38-1.1 1 .38.85 1 1.15c1.19.68 2 1.27 2 2.37s-.85 2.54-3.14 2.54c-1.8 0-2.43-1-2.43-1.87a2.77 2.77 0 0 1 1.89-2.41 1.8 1.8 0 0 1-1-1.59c0-1.16 1.07-2.24 2.9-2.24 1.53 0 2.22.79 2.22 1.65a2.21 2.21 0 0 1-1 1.72zm-1.19 1.73c-.69.37-1.27.79-1.27 1.5 0 .47.28.88 1 .88a1.18 1.18 0 0 0 1.27-1.17c0-.58-.55-.92-1-1.21z"/></g><g><path class="a" d="M44.57 22.8h22.81V0L44.57 22.8z"/><path class="b" d="M16.07 48.2V19.23h28.96L16.07 48.2z"/><path class="c" d="M67.38 50.03V25.02H42.37l25.01 25.01z"/><path class="b" d="M40.8 26.58l26.58 26.58L40.8 79.74V26.58z"/><path class="c" d="M33.09 17.02H16.07V0l17.02 17.02z"/><path class="a" d="M38.55 28.85L16.07 51.34l22.48 22.48V28.85z"/></g></svg>