<svg xmlns="http://www.w3.org/2000/svg" width="39.69mm" height="92.485" viewBox="0 0 112.52 69.37"><defs><style>.b{fill:#1d1d1b}.c{clip-path:url(#a)}</style><clipPath id="a"><path fill="none" d="M0 0h112.52v69.37H0z"/></clipPath></defs><path class="b" d="M26.06 45.95v2.02h3.49v1.28h-3.49v3.57h-1.44v-8.15h5.16v1.28h-3.72zM32.66 49.25v3.57h-1.44v-8.15h1.44v3.3h3.65v-3.3h1.44v8.15h-1.44v-3.57h-3.65z"/><g class="c"><path class="b" d="M46.07 46.77a2.69 2.69 0 0 0-2.11-1c-1 0-1.5.47-1.5 1.09s.39.83 1.32 1l1 .21c1.52.35 2.63.84 2.63 2.33s-1.26 2.6-3.3 2.6a4.34 4.34 0 0 1-3.55-1.67l1.2-.86a2.88 2.88 0 0 0 2.42 1.24c1.1 0 1.66-.45 1.66-1.1s-.56-.88-1.39-1l-1.09-.24C42 49 40.91 48.43 40.91 47s1.36-2.43 3.08-2.43a4.15 4.15 0 0 1 3.17 1.36zM52 50.79v-.69a5.6 5.6 0 0 1-.78.2l-.53.11c-.65.13-.94.3-.94.76s.31.78 1 .78A1.11 1.11 0 0 0 52 50.79m1.3.73c0 .35.05.48.38.48h.07v.89a2.44 2.44 0 0 1-.65.06c-.53 0-.9-.14-1-.58a2.08 2.08 0 0 1-1.7.61 1.77 1.77 0 0 1-2-1.8 1.51 1.51 0 0 1 .33-1 2.76 2.76 0 0 1 1.69-.78l1.26-.21c.3-.06.36-.09.36-.3v-.1c0-.48-.32-.72-1-.72s-1.17.32-1.15 1L48.57 49c0-1.4 1.13-2 2.5-2s2.26.42 2.26 1.68z"/></g><path class="b" d="M55.13 44.67h1.37v8.15h-1.37zM62.77 47.13v1.06l-3.04 3.43h3.04v1.2h-4.84v-1.05l3.09-3.44h-2.99v-1.2h4.74z"/><g class="c"><path class="b" d="M67 51.78c.87 0 1.45-.68 1.45-1.81s-.58-1.83-1.45-1.83-1.45.73-1.45 1.83.58 1.81 1.45 1.81m-1.39.44v.6h-1.35v-8.15h1.37v3.07a2.14 2.14 0 0 1 1.68-.74c1.54 0 2.53 1.25 2.53 3s-1 3-2.53 3a2 2 0 0 1-1.68-.75M71 47.11h1.37v3a2.88 2.88 0 0 0 .14 1.1.87.87 0 0 0 .88.51c.85 0 1.22-.66 1.22-1.59v-3.02h1.37v5.71h-1.42v-.73a1.92 1.92 0 0 1-1.7.88 1.82 1.82 0 0 1-1.41-.56c-.36-.4-.5-.8-.5-2.06zM78.88 47.11V48a1.7 1.7 0 0 1 1.67-1h.21v1.39h-.38a1.25 1.25 0 0 0-1.34.78 3.08 3.08 0 0 0-.16 1.13v2.56h-1.37v-5.75zM84.25 48.14c-.92 0-1.45.64-1.45 1.79s.53 1.77 1.45 1.77 1.45-.7 1.45-1.77-.54-1.79-1.45-1.79M83 53.1c.06.53.29 1 1.28 1s1.4-.42 1.4-1.5v-.51a2 2 0 0 1-1.68.73c-1.55 0-2.52-1.13-2.52-2.87s.94-3 2.51-3a2.12 2.12 0 0 1 1.7.77v-.63H87v5.41a3.91 3.91 0 0 1-.18 1.37c-.36 1-1.23 1.33-2.64 1.33-1.71 0-2.57-.77-2.61-2zM73 13.14a4.51 4.51 0 0 0-3.43-1.75A12.88 12.88 0 0 0 68 7a7 7 0 0 0 3.49-4.69.71.71 0 0 0-.6-.8 18.13 18.13 0 0 0-9.16-.19A12.22 12.22 0 0 0 55.84 0h-.05a12.29 12.29 0 0 0-5.87 1.36 18.09 18.09 0 0 0-9.15.19.72.72 0 0 0-.61.8A7 7 0 0 0 43.65 7 12.66 12.66 0 0 0 42 11.39a4.53 4.53 0 0 0-3.44 1.75 7 7 0 0 0-1.2 4.24c0 7.66 7.39 18.94 17.7 19.45h1.45c10.31-.51 17.7-11.79 17.7-19.45A6.91 6.91 0 0 0 73 13.14m-5.81-7.28c-.28-.36-.58-.71-.89-1a32.28 32.28 0 0 0 3.2-1.2 6.13 6.13 0 0 1-2.31 2.24M48.28 2.5c.95.14 1.55.3 1.57.3a.68.68 0 0 0 .57-.09 10.46 10.46 0 0 1 5.37-1.29h.05a10.65 10.65 0 0 1 5.38 1.29.67.67 0 0 0 .57.09s.62-.16 1.56-.3a17.24 17.24 0 0 1 5.27 0c-1.24.52-2.42.91-3.52 1.25l-1.63.47h-.09c-3.3.94-6 1.75-7.56 4.76-1.54-3-4.25-3.82-7.56-4.76h-.09l-1.62-.47A37 37 0 0 1 43 2.46a17.57 17.57 0 0 1 5.27 0m-6.14 1.16a31.5 31.5 0 0 0 3.21 1.2 10.87 10.87 0 0 0-.89 1 6.16 6.16 0 0 1-2.32-2.24m4.76 1.67l.89.26c3.69 1 6.14 1.77 7.3 5.34a6.62 6.62 0 0 0-2.18 1.94l-.1.12a3.79 3.79 0 1 0-3.79 4c2.22 0 3.72-1.76 4.92-3.16.64-.75 1.38-1.6 1.83-1.6.45 0 1.19.85 1.84 1.6 1.19 1.4 2.69 3.13 4.89 3.16h.06a3.79 3.79 0 1 0-3.78-4l-.1-.12a6.74 6.74 0 0 0-2.19-1.94c1.16-3.57 3.62-4.29 7.31-5.34l.89-.26a11.48 11.48 0 0 1 3.64 7.77.19.19 0 0 0 0 .08 6 6 0 0 1-5.94 6 6.82 6.82 0 0 1-3.79-1 .65.65 0 0 0-.1-.41l-2.12-3.5a.71.71 0 0 0-1.21 0l-2.13 3.49a.68.68 0 0 0-.1.41 6.74 6.74 0 0 1-3.79 1 6 6 0 0 1-6-6v-.08a11.39 11.39 0 0 1 3.64-7.77m4.5 7.83A2.38 2.38 0 0 1 49 15.5a2.38 2.38 0 1 1 2.38-2.38m8.85 0a2.38 2.38 0 1 1 2.38 2.38 2.38 2.38 0 0 1-2.37-2.38m-3.07 5l-.16.45-1.19 3.34-1.2-3.35-.16-.44 1.07-1.75.29-.47.28.46zm-18.37-.74a5.61 5.61 0 0 1 .91-3.38 3.08 3.08 0 0 1 2.14-1.17v1c0 6.81 1.65 13.93 5.15 18.42-5-3.79-8.16-10.16-8.16-14.85m4.6.3a7.37 7.37 0 0 0 4.42 2.73c.11 2.21.86 10.34 3.83 14.34-4.8-2.58-7.56-9.86-8.25-17.07m12.38 17.72c-4.86 0-6.39-10.11-6.64-14.88a8.22 8.22 0 0 0 4.27-1.11l1.69 4.35c.1.28.37.94.66.94s.57-.66.67-.94l1.67-4.35a8.23 8.23 0 0 0 4.28 1.11c-.24 4.77-1.77 14.88-6.63 14.88m4.21-.67c3-4 3.72-12.13 3.83-14.34a7.34 7.34 0 0 0 4.42-2.73c-.68 7.21-3.45 14.49-8.25 17.07m4.7-2.52c3.49-4.49 5.14-11.61 5.14-18.42v-1A3.06 3.06 0 0 1 71.92 14a5.54 5.54 0 0 1 .91 3.38c0 4.69-3.19 11.06-8.15 14.85"/><path class="b" d="M47.39 13.15A1.63 1.63 0 1 0 49 11.52a1.63 1.63 0 0 0-1.63 1.63m2.67-.29a.8.8 0 1 1-.8-.81.8.8 0 0 1 .8.81M61 13.15a1.63 1.63 0 1 0 1.63-1.63A1.63 1.63 0 0 0 61 13.15m2.67-.29a.8.8 0 1 1-.8-.81.8.8 0 0 1 .8.81M112.52 61.28h-1l-1.17 3.39c-.18.5-.35 1.07-.35 1.07s-.15-.52-.31-1l-1.12-3.46h-1l2 5.74-.25.73a1.45 1.45 0 0 1-.32.58.93.93 0 0 1-.72.22 3.81 3.81 0 0 1-.64-.06v.81a4.26 4.26 0 0 0 .72.07 1.57 1.57 0 0 0 1.64-1.21zm-7 2.82c0 1.42-.77 2-1.77 2s-1.66-.79-1.66-2.06.66-2.1 1.68-2.1 1.75.68 1.75 2.12m-4.27 3.28a2.17 2.17 0 0 0 2.5 2c1.26 0 2-.31 2.42-1.17a3.86 3.86 0 0 0 .25-1.57v-5.32h-1v.84a2.11 2.11 0 0 0-1.83-1c-1.45 0-2.53 1.14-2.53 2.95s1 2.89 2.53 2.89a2 2 0 0 0 1.84-1v.57c0 1.33-.29 2-1.67 2a1.43 1.43 0 0 1-1.58-1.33zm-5.62-3.23c0-1.37.68-2.18 1.71-2.18s1.7.8 1.7 2.18-.69 2.16-1.7 2.16-1.71-.79-1.71-2.16m-1 0a2.74 2.74 0 1 0 5.45 0 2.74 2.74 0 1 0-5.45 0m-1.39-5.33h-1V67h1zm-6.81 5.32c0-1.37.67-2.18 1.7-2.18s1.7.8 1.7 2.18-.69 2.16-1.7 2.16-1.7-.79-1.7-2.16m-1 0a2.73 2.73 0 1 0 5.44 0 2.73 2.73 0 1 0-5.44 0m-1.34-.74a2.78 2.78 0 0 0-.36-1.54 1.78 1.78 0 0 0-1.6-.73 2 2 0 0 0-1.84 1v-.85h-1V67h1v-3.3A1.52 1.52 0 0 1 81.8 62c.84 0 1.3.4 1.3 1.64V67h1zm-6.45 0a2.78 2.78 0 0 0-.36-1.54 1.8 1.8 0 0 0-1.61-.73 2 2 0 0 0-1.84 1v-3.3h-1V67h1v-3.3a1.53 1.53 0 0 1 1.52-1.7c.84 0 1.29.4 1.29 1.64V67h1zm-6.73 1.86a1.68 1.68 0 0 1-1.66 1c-1 0-1.69-.79-1.69-2.16S68.23 62 69.25 62a1.57 1.57 0 0 1 1.56 1.15l.83-.43a2.4 2.4 0 0 0-2.39-1.55 2.71 2.71 0 0 0-2.71 3c0 1.83 1 3 2.71 3a2.57 2.57 0 0 0 2.44-1.47zM63 62c.9 0 1.45.62 1.54 1.62h-3.25A1.69 1.69 0 0 1 63 62m1.81 3.35a1.91 1.91 0 0 1-1.7 1 1.78 1.78 0 0 1-1.81-1.9h4.27v-.22c0-1.7-.85-3-2.57-3a2.73 2.73 0 0 0-2.71 3c0 1.91 1.09 3 2.72 3a2.91 2.91 0 0 0 2.52-1.32zm-10.15-5.57h2.51V67h1v-7.22h2.51v-1h-6.02zm-1 5.35c0 .89-.7 1.24-1.42 1.24s-1.21-.35-1.21-1a.71.71 0 0 1 .3-.62 3 3 0 0 1 1.11-.37l.56-.12a4 4 0 0 0 .66-.17zm1.58 1.25h-.13c-.35 0-.49-.12-.49-.51V63c0-1.43-.86-1.8-2.13-1.8s-2.37.63-2.35 1.91l1 .11c0-.69.31-1.21 1.34-1.21s1.22.43 1.22 1v.12c0 .24-.12.29-.48.35l-.78.13a5.21 5.21 0 0 0-1.67.49 1.42 1.42 0 0 0-.77 1.32 1.71 1.71 0 0 0 2 1.73 1.93 1.93 0 0 0 1.76-.79c0 .47.26.77 1 .77a3.26 3.26 0 0 0 .56 0zm-6.6-7.55h-1v1.28h1zm0 2.45h-1V67h1zm-3.79 2.85c0 1.45-.78 2.17-1.78 2.17s-1.65-.81-1.65-2.17.7-2.13 1.71-2.13 1.75.72 1.75 2.16m-2 3a2 2 0 0 0 1.87-1V67h1v-8.17h-1v3.29a2 2 0 0 0-1.83-1c-1.43 0-2.52 1.08-2.52 3s1 3 2.48 3M36.85 62c.9 0 1.45.62 1.54 1.62h-3.21A1.68 1.68 0 0 1 36.85 62m1.81 3.35a1.92 1.92 0 0 1-1.7 1 1.78 1.78 0 0 1-1.81-1.9h4.27v-.22c0-1.7-.85-3-2.57-3a2.73 2.73 0 0 0-2.71 3c0 1.91 1.09 3 2.72 3a2.91 2.91 0 0 0 2.52-1.32zM29.37 67l1.79-5.67c.16-.47.39-1.38.39-1.38v7h1v-8.12H31l-1.79 5.54c-.18.56-.31 1.06-.36 1.26-.06-.17-.21-.7-.4-1.25l-1.86-5.55h-1.47V67h1v-5.24-1.7s.24.9.4 1.35L28.38 67zm-6.14-8.16h-1v1.28h1zm0 2.45h-1V67h1zm-5.42.71h1.1v4a1.89 1.89 0 0 0 .07.55c.18.48.65.6 1.19.6a4.28 4.28 0 0 0 1-.12v-.78a4.31 4.31 0 0 1-.66.07c-.32 0-.45-.06-.52-.19a1.11 1.11 0 0 1-.08-.54V62h1.26v-.76h-1.26V59l-1 .22v2.06h-1.1zm-.95-3.21h-1V67h1zm-7.5 5.71c0 1.24.13 1.65.49 2.06a1.87 1.87 0 0 0 1.43.54 1.92 1.92 0 0 0 1.82-1v.9h1v-5.72h-1v3.28a1.5 1.5 0 0 1-1.45 1.7 1.07 1.07 0 0 1-1.1-.54 2.39 2.39 0 0 1-.2-1.15v-3.29h-1zM4.26 67l1.79-5.67c.15-.47.38-1.38.38-1.38v7h1v-8.12h-1.5l-1.79 5.54c-.18.56-.31 1.06-.36 1.26-.06-.17-.22-.7-.41-1.25l-1.86-5.55H0V67h1v-5.24-1.7s.24.9.39 1.35L3.26 67z"/></g></svg>